<?xml version="1.0" standalone="no"?>
<!DOCTYPE svg PUBLIC "-//W3C//DTD SVG 20010904//EN"
 "http://www.w3.org/TR/2001/REC-SVG-20010904/DTD/svg10.dtd">
<svg version="1.0" xmlns="http://www.w3.org/2000/svg"
 width="100.000000pt" height="100.000000pt" viewBox="0 0 100.000000 100.000000"
 preserveAspectRatio="xMidYMid meet">
<metadata>
Created by potrace 1.11, written by Peter Selinger 2001-2013
</metadata>
<g transform="translate(0.000000,100.000000) scale(0.100000,-0.100000)"
fill="#000000" stroke="none">
<path d="M401 972 c-14 -2 -35 -11 -48 -19 -50 -33 -53 -53 -53 -321 0 -215
-2 -251 -16 -263 -30 -25 -57 -93 -57 -144 0 -113 85 -198 198 -198 113 0 198
85 198 198 0 51 -27 119 -57 144 -14 12 -16 48 -16 263 0 198 -3 255 -14 277
-25 47 -78 71 -135 63z m69 -37 c16 -8 34 -24 40 -34 5 -11 10 -76 10 -145 l0
-126 -95 0 -95 0 0 126 c0 69 5 134 10 144 12 23 57 49 83 50 10 0 31 -7 47
-15z"/>
<path d="M626 891 c-9 -13 19 -21 74 -21 27 0 55 3 64 6 33 13 2 24 -64 24
-38 0 -71 -4 -74 -9z"/>
<path d="M626 791 c-9 -13 19 -21 74 -21 27 0 55 3 64 6 33 13 2 24 -64 24
-38 0 -71 -4 -74 -9z"/>
<path d="M626 691 c-9 -13 19 -21 74 -21 27 0 55 3 64 6 33 13 2 24 -64 24
-38 0 -71 -4 -74 -9z"/>
<path d="M626 591 c-9 -13 19 -21 74 -21 27 0 55 3 64 6 33 13 2 24 -64 24
-38 0 -71 -4 -74 -9z"/>
<path d="M626 491 c-9 -13 19 -21 74 -21 27 0 55 3 64 6 33 13 2 24 -64 24
-38 0 -71 -4 -74 -9z"/>
<path d="M626 391 c-9 -13 19 -21 74 -21 27 0 55 3 64 6 33 13 2 24 -64 24
-38 0 -71 -4 -74 -9z"/>
</g>
</svg>
